<mxfile host="app.diagrams.net" modified="2022-02-19T12:34:19.948Z" agent="5.0 (Windows NT 10.0; Win64; x64) AppleWebKit/537.36 (KHTML, like Gecko) Chrome/98.0.4758.102 Safari/537.36" etag="03LIyT09zvepRhPVkUFm" version="16.5.6" type="github">
  <diagram id="C5RBs43oDa-KdzZeNtuy" name="Page-1">
    <mxGraphModel dx="2244" dy="794" grid="1" gridSize="10" guides="1" tooltips="1" connect="1" arrows="1" fold="1" page="1" pageScale="1" pageWidth="827" pageHeight="1169" math="0" shadow="0">
      <root>
        <mxCell id="WIyWlLk6GJQsqaUBKTNV-0" />
        <mxCell id="WIyWlLk6GJQsqaUBKTNV-1" parent="WIyWlLk6GJQsqaUBKTNV-0" />
        <mxCell id="WIyWlLk6GJQsqaUBKTNV-2" value="" style="rounded=0;html=1;jettySize=auto;orthogonalLoop=1;fontSize=11;endArrow=block;endFill=0;endSize=8;strokeWidth=1;shadow=0;labelBackgroundColor=none;edgeStyle=orthogonalEdgeStyle;" parent="WIyWlLk6GJQsqaUBKTNV-1" source="WIyWlLk6GJQsqaUBKTNV-3" edge="1">
          <mxGeometry relative="1" as="geometry">
            <mxPoint x="414" y="100" as="targetPoint" />
          </mxGeometry>
        </mxCell>
        <mxCell id="WIyWlLk6GJQsqaUBKTNV-3" value="Inicio" style="rounded=1;whiteSpace=wrap;html=1;fontSize=12;glass=0;strokeWidth=1;shadow=0;" parent="WIyWlLk6GJQsqaUBKTNV-1" vertex="1">
          <mxGeometry x="354" y="10" width="120" height="40" as="geometry" />
        </mxCell>
        <mxCell id="WIyWlLk6GJQsqaUBKTNV-11" value="Fin" style="rounded=1;whiteSpace=wrap;html=1;fontSize=12;glass=0;strokeWidth=1;shadow=0;" parent="WIyWlLk6GJQsqaUBKTNV-1" vertex="1">
          <mxGeometry x="827" y="750" width="120" height="40" as="geometry" />
        </mxCell>
        <mxCell id="yyxiZFKW22LoZUIJejNY-0" value="Asignar el valor 0 a la variable opcion" style="rounded=0;whiteSpace=wrap;html=1;" vertex="1" parent="WIyWlLk6GJQsqaUBKTNV-1">
          <mxGeometry x="354" y="100" width="120" height="60" as="geometry" />
        </mxCell>
        <mxCell id="yyxiZFKW22LoZUIJejNY-1" value="" style="rounded=0;html=1;jettySize=auto;orthogonalLoop=1;fontSize=11;endArrow=block;endFill=0;endSize=8;strokeWidth=1;shadow=0;labelBackgroundColor=none;edgeStyle=orthogonalEdgeStyle;" edge="1" parent="WIyWlLk6GJQsqaUBKTNV-1">
          <mxGeometry relative="1" as="geometry">
            <mxPoint x="413.5" y="160" as="sourcePoint" />
            <mxPoint x="413.5" y="210" as="targetPoint" />
          </mxGeometry>
        </mxCell>
        <mxCell id="yyxiZFKW22LoZUIJejNY-2" value="Escribir &quot;Elija uno de los siguientes ejercicios&quot;" style="shape=parallelogram;perimeter=parallelogramPerimeter;whiteSpace=wrap;html=1;fixedSize=1;" vertex="1" parent="WIyWlLk6GJQsqaUBKTNV-1">
          <mxGeometry x="294" y="210" width="240" height="60" as="geometry" />
        </mxCell>
        <mxCell id="yyxiZFKW22LoZUIJejNY-3" value="" style="rounded=0;html=1;jettySize=auto;orthogonalLoop=1;fontSize=11;endArrow=block;endFill=0;endSize=8;strokeWidth=1;shadow=0;labelBackgroundColor=none;edgeStyle=orthogonalEdgeStyle;" edge="1" parent="WIyWlLk6GJQsqaUBKTNV-1">
          <mxGeometry relative="1" as="geometry">
            <mxPoint x="413.5" y="270" as="sourcePoint" />
            <mxPoint x="413.5" y="320" as="targetPoint" />
          </mxGeometry>
        </mxCell>
        <mxCell id="yyxiZFKW22LoZUIJejNY-4" value="Mostrar el menu()" style="shape=parallelogram;perimeter=parallelogramPerimeter;whiteSpace=wrap;html=1;fixedSize=1;" vertex="1" parent="WIyWlLk6GJQsqaUBKTNV-1">
          <mxGeometry x="309" y="320" width="210" height="60" as="geometry" />
        </mxCell>
        <mxCell id="yyxiZFKW22LoZUIJejNY-5" value="" style="rounded=0;html=1;jettySize=auto;orthogonalLoop=1;fontSize=11;endArrow=block;endFill=0;endSize=8;strokeWidth=1;shadow=0;labelBackgroundColor=none;edgeStyle=orthogonalEdgeStyle;" edge="1" parent="WIyWlLk6GJQsqaUBKTNV-1">
          <mxGeometry relative="1" as="geometry">
            <mxPoint x="413.5" y="380" as="sourcePoint" />
            <mxPoint x="413.5" y="430" as="targetPoint" />
          </mxGeometry>
        </mxCell>
        <mxCell id="yyxiZFKW22LoZUIJejNY-6" value="Poner en la variable opcion el valor introducido" style="shape=parallelogram;perimeter=parallelogramPerimeter;whiteSpace=wrap;html=1;fixedSize=1;" vertex="1" parent="WIyWlLk6GJQsqaUBKTNV-1">
          <mxGeometry x="250" y="430" width="250" height="60" as="geometry" />
        </mxCell>
        <mxCell id="yyxiZFKW22LoZUIJejNY-7" value="" style="rounded=0;html=1;jettySize=auto;orthogonalLoop=1;fontSize=11;endArrow=block;endFill=0;endSize=8;strokeWidth=1;shadow=0;labelBackgroundColor=none;edgeStyle=orthogonalEdgeStyle;" edge="1" parent="WIyWlLk6GJQsqaUBKTNV-1">
          <mxGeometry relative="1" as="geometry">
            <mxPoint x="413.5" y="490" as="sourcePoint" />
            <mxPoint x="413.5" y="540" as="targetPoint" />
          </mxGeometry>
        </mxCell>
        <mxCell id="yyxiZFKW22LoZUIJejNY-8" value="opcion" style="rhombus;whiteSpace=wrap;html=1;" vertex="1" parent="WIyWlLk6GJQsqaUBKTNV-1">
          <mxGeometry x="374" y="540" width="80" height="80" as="geometry" />
        </mxCell>
        <mxCell id="yyxiZFKW22LoZUIJejNY-14" value="&lt;b&gt;case 1:&lt;/b&gt;" style="text;html=1;strokeColor=none;fillColor=none;align=center;verticalAlign=middle;whiteSpace=wrap;rounded=0;" vertex="1" parent="WIyWlLk6GJQsqaUBKTNV-1">
          <mxGeometry x="-255" y="580" width="50" height="30" as="geometry" />
        </mxCell>
        <mxCell id="yyxiZFKW22LoZUIJejNY-15" value="" style="rounded=0;html=1;jettySize=auto;orthogonalLoop=1;fontSize=11;endArrow=block;endFill=0;endSize=8;strokeWidth=1;shadow=0;labelBackgroundColor=none;edgeStyle=orthogonalEdgeStyle;exitX=0;exitY=0.5;exitDx=0;exitDy=0;entryX=0.25;entryY=0;entryDx=0;entryDy=0;" edge="1" parent="WIyWlLk6GJQsqaUBKTNV-1" source="yyxiZFKW22LoZUIJejNY-8" target="yyxiZFKW22LoZUIJejNY-29">
          <mxGeometry relative="1" as="geometry">
            <mxPoint x="350" y="580" as="sourcePoint" />
            <mxPoint x="60" y="640" as="targetPoint" />
            <Array as="points">
              <mxPoint x="-250" y="580" />
            </Array>
          </mxGeometry>
        </mxCell>
        <mxCell id="yyxiZFKW22LoZUIJejNY-17" value="" style="rounded=0;html=1;jettySize=auto;orthogonalLoop=1;fontSize=11;endArrow=block;endFill=0;endSize=8;strokeWidth=1;shadow=0;labelBackgroundColor=none;edgeStyle=orthogonalEdgeStyle;entryX=0.68;entryY=-0.017;entryDx=0;entryDy=0;entryPerimeter=0;" edge="1" parent="WIyWlLk6GJQsqaUBKTNV-1" target="yyxiZFKW22LoZUIJejNY-31">
          <mxGeometry relative="1" as="geometry">
            <mxPoint x="100" y="580" as="sourcePoint" />
            <mxPoint x="100" y="650" as="targetPoint" />
            <Array as="points">
              <mxPoint x="101" y="659" />
            </Array>
          </mxGeometry>
        </mxCell>
        <mxCell id="yyxiZFKW22LoZUIJejNY-18" value="" style="rounded=0;html=1;jettySize=auto;orthogonalLoop=1;fontSize=11;endArrow=block;endFill=0;endSize=8;strokeWidth=1;shadow=0;labelBackgroundColor=none;edgeStyle=orthogonalEdgeStyle;" edge="1" parent="WIyWlLk6GJQsqaUBKTNV-1">
          <mxGeometry relative="1" as="geometry">
            <mxPoint x="543" y="580" as="sourcePoint" />
            <mxPoint x="542.5" y="660" as="targetPoint" />
            <Array as="points">
              <mxPoint x="542.5" y="620" />
              <mxPoint x="542.5" y="620" />
            </Array>
          </mxGeometry>
        </mxCell>
        <mxCell id="yyxiZFKW22LoZUIJejNY-19" value="" style="rounded=0;html=1;jettySize=auto;orthogonalLoop=1;fontSize=11;endArrow=block;endFill=0;endSize=8;strokeWidth=1;shadow=0;labelBackgroundColor=none;edgeStyle=orthogonalEdgeStyle;exitX=1;exitY=0.5;exitDx=0;exitDy=0;" edge="1" parent="WIyWlLk6GJQsqaUBKTNV-1" source="yyxiZFKW22LoZUIJejNY-8">
          <mxGeometry relative="1" as="geometry">
            <mxPoint x="539" y="580" as="sourcePoint" />
            <mxPoint x="1110" y="670" as="targetPoint" />
            <Array as="points">
              <mxPoint x="1110" y="580" />
              <mxPoint x="1110" y="650" />
            </Array>
          </mxGeometry>
        </mxCell>
        <mxCell id="yyxiZFKW22LoZUIJejNY-20" value="" style="rounded=0;html=1;jettySize=auto;orthogonalLoop=1;fontSize=11;endArrow=block;endFill=0;endSize=8;strokeWidth=1;shadow=0;labelBackgroundColor=none;edgeStyle=orthogonalEdgeStyle;" edge="1" parent="WIyWlLk6GJQsqaUBKTNV-1">
          <mxGeometry relative="1" as="geometry">
            <mxPoint x="680" y="580" as="sourcePoint" />
            <mxPoint x="680" y="640" as="targetPoint" />
          </mxGeometry>
        </mxCell>
        <mxCell id="yyxiZFKW22LoZUIJejNY-21" value="" style="rounded=0;html=1;jettySize=auto;orthogonalLoop=1;fontSize=11;endArrow=block;endFill=0;endSize=8;strokeWidth=1;shadow=0;labelBackgroundColor=none;edgeStyle=orthogonalEdgeStyle;" edge="1" parent="WIyWlLk6GJQsqaUBKTNV-1">
          <mxGeometry relative="1" as="geometry">
            <mxPoint x="880" y="580" as="sourcePoint" />
            <mxPoint x="880" y="640" as="targetPoint" />
          </mxGeometry>
        </mxCell>
        <mxCell id="yyxiZFKW22LoZUIJejNY-23" value="&lt;b&gt;case 2:&lt;/b&gt;" style="text;html=1;strokeColor=none;fillColor=none;align=center;verticalAlign=middle;whiteSpace=wrap;rounded=0;" vertex="1" parent="WIyWlLk6GJQsqaUBKTNV-1">
          <mxGeometry x="-140" y="580" width="50" height="30" as="geometry" />
        </mxCell>
        <mxCell id="yyxiZFKW22LoZUIJejNY-24" value="&lt;b&gt;case 3:&lt;/b&gt;" style="text;html=1;strokeColor=none;fillColor=none;align=center;verticalAlign=middle;whiteSpace=wrap;rounded=0;" vertex="1" parent="WIyWlLk6GJQsqaUBKTNV-1">
          <mxGeometry x="30" y="580" width="60" height="30" as="geometry" />
        </mxCell>
        <mxCell id="yyxiZFKW22LoZUIJejNY-25" value="&lt;b&gt;case 4:&lt;/b&gt;" style="text;html=1;strokeColor=none;fillColor=none;align=center;verticalAlign=middle;whiteSpace=wrap;rounded=0;" vertex="1" parent="WIyWlLk6GJQsqaUBKTNV-1">
          <mxGeometry x="483" y="580" width="51" height="30" as="geometry" />
        </mxCell>
        <mxCell id="yyxiZFKW22LoZUIJejNY-26" value="&lt;b&gt;case 5:&lt;/b&gt;" style="text;html=1;strokeColor=none;fillColor=none;align=center;verticalAlign=middle;whiteSpace=wrap;rounded=0;" vertex="1" parent="WIyWlLk6GJQsqaUBKTNV-1">
          <mxGeometry x="620" y="580" width="60" height="30" as="geometry" />
        </mxCell>
        <mxCell id="yyxiZFKW22LoZUIJejNY-27" value="&lt;b&gt;case 6:&lt;/b&gt;" style="text;html=1;strokeColor=none;fillColor=none;align=center;verticalAlign=middle;whiteSpace=wrap;rounded=0;" vertex="1" parent="WIyWlLk6GJQsqaUBKTNV-1">
          <mxGeometry x="820" y="580" width="60" height="30" as="geometry" />
        </mxCell>
        <mxCell id="yyxiZFKW22LoZUIJejNY-28" value="&lt;b&gt;default:&lt;/b&gt;" style="text;html=1;strokeColor=none;fillColor=none;align=center;verticalAlign=middle;whiteSpace=wrap;rounded=0;" vertex="1" parent="WIyWlLk6GJQsqaUBKTNV-1">
          <mxGeometry x="1040" y="580" width="60" height="30" as="geometry" />
        </mxCell>
        <mxCell id="yyxiZFKW22LoZUIJejNY-29" value="Mostrar &lt;br&gt;tiempo()" style="shape=parallelogram;perimeter=parallelogramPerimeter;whiteSpace=wrap;html=1;fixedSize=1;" vertex="1" parent="WIyWlLk6GJQsqaUBKTNV-1">
          <mxGeometry x="-270" y="660" width="80" height="60" as="geometry" />
        </mxCell>
        <mxCell id="yyxiZFKW22LoZUIJejNY-30" value="Mostrar&lt;br&gt;tiempoMejorado()" style="shape=parallelogram;perimeter=parallelogramPerimeter;whiteSpace=wrap;html=1;fixedSize=1;" vertex="1" parent="WIyWlLk6GJQsqaUBKTNV-1">
          <mxGeometry x="-170" y="660" width="131" height="60" as="geometry" />
        </mxCell>
        <mxCell id="yyxiZFKW22LoZUIJejNY-31" value="Mostrar mesCorrespondiente()" style="shape=parallelogram;perimeter=parallelogramPerimeter;whiteSpace=wrap;html=1;fixedSize=1;" vertex="1" parent="WIyWlLk6GJQsqaUBKTNV-1">
          <mxGeometry y="660" width="150" height="60" as="geometry" />
        </mxCell>
        <mxCell id="yyxiZFKW22LoZUIJejNY-35" value="Mostrar&amp;nbsp;&lt;br&gt;tiempoCoccion()" style="shape=parallelogram;perimeter=parallelogramPerimeter;whiteSpace=wrap;html=1;fixedSize=1;" vertex="1" parent="WIyWlLk6GJQsqaUBKTNV-1">
          <mxGeometry x="483" y="660" width="120" height="60" as="geometry" />
        </mxCell>
        <mxCell id="yyxiZFKW22LoZUIJejNY-39" value="" style="rounded=0;html=1;jettySize=auto;orthogonalLoop=1;fontSize=11;endArrow=block;endFill=0;endSize=8;strokeWidth=1;shadow=0;labelBackgroundColor=none;edgeStyle=orthogonalEdgeStyle;entryX=0;entryY=0.5;entryDx=0;entryDy=0;exitX=0.75;exitY=0;exitDx=0;exitDy=0;" edge="1" parent="WIyWlLk6GJQsqaUBKTNV-1" source="yyxiZFKW22LoZUIJejNY-29" target="yyxiZFKW22LoZUIJejNY-2">
          <mxGeometry relative="1" as="geometry">
            <mxPoint x="89" y="350" as="sourcePoint" />
            <mxPoint x="270" y="240" as="targetPoint" />
            <Array as="points">
              <mxPoint x="-210" y="240" />
            </Array>
          </mxGeometry>
        </mxCell>
        <mxCell id="yyxiZFKW22LoZUIJejNY-42" value="" style="endArrow=none;html=1;rounded=0;exitX=0.206;exitY=-0.033;exitDx=0;exitDy=0;exitPerimeter=0;" edge="1" parent="WIyWlLk6GJQsqaUBKTNV-1" source="yyxiZFKW22LoZUIJejNY-30">
          <mxGeometry width="50" height="50" relative="1" as="geometry">
            <mxPoint x="390" y="390" as="sourcePoint" />
            <mxPoint x="30" y="530" as="targetPoint" />
            <Array as="points">
              <mxPoint x="-143" y="530" />
            </Array>
          </mxGeometry>
        </mxCell>
        <mxCell id="yyxiZFKW22LoZUIJejNY-43" value="" style="endArrow=none;html=1;rounded=0;exitX=0.18;exitY=-0.067;exitDx=0;exitDy=0;exitPerimeter=0;" edge="1" parent="WIyWlLk6GJQsqaUBKTNV-1" source="yyxiZFKW22LoZUIJejNY-31">
          <mxGeometry width="50" height="50" relative="1" as="geometry">
            <mxPoint x="390" y="390" as="sourcePoint" />
            <mxPoint x="-210" y="530" as="targetPoint" />
            <Array as="points">
              <mxPoint x="30" y="530" />
            </Array>
          </mxGeometry>
        </mxCell>
        <mxCell id="yyxiZFKW22LoZUIJejNY-46" value="Escribir&amp;nbsp;&lt;br&gt;&quot;Gracias.&quot;" style="shape=parallelogram;perimeter=parallelogramPerimeter;whiteSpace=wrap;html=1;fixedSize=1;" vertex="1" parent="WIyWlLk6GJQsqaUBKTNV-1">
          <mxGeometry x="820" y="640" width="120" height="60" as="geometry" />
        </mxCell>
        <mxCell id="yyxiZFKW22LoZUIJejNY-47" value="" style="rounded=0;html=1;jettySize=auto;orthogonalLoop=1;fontSize=11;endArrow=block;endFill=0;endSize=8;strokeWidth=1;shadow=0;labelBackgroundColor=none;edgeStyle=orthogonalEdgeStyle;" edge="1" parent="WIyWlLk6GJQsqaUBKTNV-1">
          <mxGeometry relative="1" as="geometry">
            <mxPoint x="879.5" y="700" as="sourcePoint" />
            <mxPoint x="879.5" y="750" as="targetPoint" />
          </mxGeometry>
        </mxCell>
        <mxCell id="yyxiZFKW22LoZUIJejNY-48" value="" style="rounded=0;html=1;jettySize=auto;orthogonalLoop=1;fontSize=11;endArrow=block;endFill=0;endSize=8;strokeWidth=1;shadow=0;labelBackgroundColor=none;edgeStyle=orthogonalEdgeStyle;entryX=0.687;entryY=0;entryDx=0;entryDy=0;entryPerimeter=0;" edge="1" parent="WIyWlLk6GJQsqaUBKTNV-1" target="yyxiZFKW22LoZUIJejNY-30">
          <mxGeometry relative="1" as="geometry">
            <mxPoint x="-80" y="580" as="sourcePoint" />
            <mxPoint x="-80" y="630" as="targetPoint" />
          </mxGeometry>
        </mxCell>
      </root>
    </mxGraphModel>
  </diagram>
</mxfile>
